HIERARCHY
ROOT hip
{
	OFFSET 0.000000 0.000000 0.000000 
	CHANNELS 6 Xposition Yposition Zposition Xrotation Zrotation Yrotation
	JOINT abdomen
	{
		OFFSET 0.000000 3.402643 0.000000 
		CHANNELS 3 Xrotation Zrotation Yrotation
		JOINT chest
		{
			OFFSET 0.000000 8.438565 -0.680529 
			CHANNELS 3 Xrotation Zrotation Yrotation
			JOINT neck
			{
				OFFSET 0.000000 10.207942 -0.272212 
				CHANNELS 3 Xrotation Zrotation Yrotation
				JOINT head
				{
					OFFSET 0.000000 3.130431 0.000000 
					CHANNELS 3 Xrotation Zrotation Yrotation
					End Site
					{
						OFFSET 0.000000 3.130435 0.000000 
					}
				}
			}
			JOINT lCollar
			{
				OFFSET 3.470700 6.669187 -0.816635 
				CHANNELS 3 Yrotation Zrotation Xrotation
				JOINT lShldr
				{
					OFFSET 3.198488 0.000000 0.000000 
					CHANNELS 3 Zrotation Yrotation Xrotation
					JOINT lForeArm
					{
						OFFSET 10.139888 0.000000 0.000000 
						CHANNELS 3 Yrotation Zrotation Xrotation
						JOINT lHand
						{
							OFFSET 8.370511 0.000000 0.000000 
							CHANNELS 3 Zrotation Yrotation Xrotation
							End Site
							{
								OFFSET 4.083176 0.000000 0.000000 
							}
						}
					}
				}
			}
			JOINT rCollar
			{
				OFFSET -3.470700 6.669187 -0.816635 
				CHANNELS 3 Yrotation Zrotation Xrotation
				JOINT rShldr
				{
					OFFSET -3.198488 0.000000 0.000000 
					CHANNELS 3 Zrotation Yrotation Xrotation
					JOINT rForeArm
					{
						OFFSET -10.139888 0.000000 0.000000 
						CHANNELS 3 Yrotation Zrotation Xrotation
						JOINT rHand
						{
							OFFSET -8.370511 0.000000 0.000000 
							CHANNELS 3 Zrotation Yrotation Xrotation
							End Site
							{
								OFFSET -4.083176 0.000000 0.000000 
							}
						}
					}
				}
			}
		}
	}
	JOINT lThigh
	{
		OFFSET 5.308129 -1.633274 1.361059 
		CHANNELS 3 Xrotation Zrotation Yrotation
		JOINT lShin
		{
			OFFSET -2.041588 -20.007561 0.000000 
			CHANNELS 3 Xrotation Zrotation Yrotation
			JOINT lFoot
			{
				OFFSET 0.000000 -19.190928 -1.224953 
				CHANNELS 3 Xrotation Yrotation Zrotation
				End Site
				{
					OFFSET 0.000000 -2.449906 4.627600 
				}
			}
		}
	}
	JOINT rThigh
	{
		OFFSET -5.308129 -1.633274 1.361059 
		CHANNELS 3 Xrotation Zrotation Yrotation
		JOINT rShin
		{
			OFFSET 2.041588 -20.007561 0.000000 
			CHANNELS 3 Xrotation Zrotation Yrotation
			JOINT rFoot
			{
				OFFSET 0.000000 -19.190928 -1.224953 
				CHANNELS 3 Xrotation Yrotation Zrotation
				End Site
				{
					OFFSET 0.000000 -2.449906 4.627600 
				}
			}
		}
	}
}
MOTION
Frames: 20
Frame Time: 0.033333
-3.534776 48.827633 -43.308956 -15.717580 -1.381891 1.218811 40.917797 1.247192 -5.242959 -20.839844 0.000000 0.000000 -7.251968 9.248296 0.950568 8.586096 -4.084739 0.307924 -4.754608 -0.109225 -0.002657 -46.253635 2.425618 0.614724 -4.760767 11.069938 23.464605 -5.642376 -0.670123 -8.630638 4.754608 0.109225 -0.002676 48.797878 -2.465548 -17.732159 2.569872 0.190495 20.053005 -8.839135 11.832623 27.346888 17.927212 11.258738 7.566525 3.918166 -8.282290 -4.656894 -4.963388 -9.323957 5.309844 22.886635 -10.828819 -12.697597 -3.873302 14.721290 -1.562570 -0.528882 11.786614 -12.121978 
-3.545320 48.855610 -43.400272 -15.229292 -1.404000 1.182852 41.641415 1.034582 -4.955811 -20.839844 0.000000 0.000000 -7.412230 9.293515 0.653427 8.586096 -4.084739 0.307924 -4.754608 -0.109225 -0.002657 -51.048733 1.426315 1.846400 -4.913262 11.360305 23.043858 -6.614419 -1.291178 -9.120562 4.754608 0.109225 -0.002676 54.371639 -1.859208 -16.575024 2.553196 0.189013 20.326624 -8.652617 12.405252 28.275808 17.372278 11.172444 7.119660 3.621142 -8.132400 -4.709484 -4.678150 -8.799036 5.255148 22.191498 -10.681663 -12.444859 -3.933156 14.461224 -1.607282 -0.402517 11.587870 -12.111599 
-3.557985 48.885166 -43.509007 -14.701924 -1.426350 1.174868 42.668213 0.899024 -4.608373 -20.839844 0.000000 0.000000 -7.490286 9.123539 0.372624 8.586096 -4.084739 0.307924 -4.754608 -0.109225 -0.002657 -55.563011 -0.006814 3.275352 -4.888818 11.282368 22.684353 -7.039621 -1.498176 -9.659131 4.754608 0.109225 -0.002676 59.645973 -1.120858 -15.359895 2.537601 0.194488 20.756636 -8.014854 12.653059 29.496565 16.807999 11.099870 6.838004 3.199451 -7.945958 -4.672317 -4.302485 -8.419075 5.142534 21.429193 -10.408855 -12.298919 -3.954413 13.960663 -1.856616 -0.274076 11.632620 -12.049488 
-3.580156 48.914722 -43.639378 -14.017899 -1.392814 1.363213 43.765278 1.069133 -4.430838 -20.839844 0.000000 0.000000 -7.480520 8.780543 0.191377 8.586096 -4.084739 0.307924 -4.754608 -0.109225 -0.002657 -59.837845 -1.783746 5.077354 -4.691364 10.790199 22.878727 -7.020651 -1.469983 -9.895055 4.754608 0.109225 -0.002676 64.253754 -0.437213 -13.939862 2.516771 0.206253 21.733770 -7.515646 12.531637 30.892632 15.982294 11.063169 6.455486 2.855629 -7.843997 -4.781575 -3.899173 -8.047235 5.109345 20.548201 -10.115001 -12.408772 -4.060788 13.420331 -2.195586 0.007726 12.023726 -11.887575 
-3.600236 48.946926 -43.814617 -13.010757 -1.208404 1.675620 44.848980 1.378606 -4.378572 -20.839844 0.000000 0.000000 -7.016652 8.575195 0.343462 8.586096 -4.084739 0.307924 -4.754608 -0.109225 -0.002657 -63.743538 -3.820236 7.067013 -4.463583 10.233209 23.646378 -6.793072 -1.536875 -9.442253 4.754608 0.109225 -0.002676 68.059769 0.384321 -12.439905 2.498333 0.222845 22.945414 -7.135781 12.037601 32.308331 14.790461 10.905788 6.139551 2.366791 -7.832413 -4.817732 -3.301639 -7.958519 5.125243 19.308556 -10.017473 -12.583079 -4.167049 12.978228 -2.509784 0.389347 12.345135 -11.781594 
-3.608659 48.976482 -44.077484 -11.729857 -0.860555 2.073184 46.195679 1.642243 -4.393933 -20.839844 0.000000 0.000000 -6.525247 8.245094 0.851718 8.586096 -4.084739 0.307924 -4.754608 -0.109225 -0.002657 -67.445160 -6.083312 9.680276 -4.716869 10.242352 24.836550 -6.582876 -1.987070 -9.373804 4.754608 0.109225 -0.002676 71.058029 1.638932 -10.962828 2.471364 0.235725 24.088724 -6.662128 11.383219 33.697956 13.228676 10.564252 6.002356 1.792182 -7.824590 -4.669255 -2.503884 -8.392041 5.076683 17.678852 -10.144330 -12.682166 -4.286622 12.623105 -2.722141 0.876986 12.232563 -11.826038 
-3.612337 48.998119 -44.450653 -10.117639 -0.538371 2.576532 47.851803 1.899952 -4.213907 -20.839844 0.000000 0.000000 -6.804613 7.513020 0.969773 8.586096 -4.084739 0.307924 -4.754608 -0.109225 -0.002657 -70.859413 -8.787976 13.103543 -5.496805 10.703786 26.044674 -6.589489 -2.322458 -10.729447 4.754608 0.109225 -0.002676 73.176819 3.329033 -9.508957 2.453433 0.253320 25.134407 -6.427804 10.926344 34.881477 11.020692 10.182892 5.567026 1.431927 -7.737707 -4.680496 -1.661510 -8.555114 5.059510 15.578509 -10.260644 -12.653346 -4.432266 12.230607 -3.023865 1.534326 11.897896 -11.784847 
-3.611299 49.002338 -44.930443 -8.330179 -0.280215 3.000013 49.824551 2.070878 -3.571157 -20.839844 0.000000 0.000000 -7.783158 6.903885 0.385265 8.586096 -4.084739 0.307924 -4.754608 -0.109225 -0.002657 -73.668701 -11.906419 16.563185 -6.338322 11.200673 27.201468 -6.685743 -2.127844 -12.067523 4.754608 0.109225 -0.002676 74.388756 5.478930 -8.175863 2.441545 0.262134 25.789150 -6.677095 10.926016 35.564762 8.284487 9.808779 4.952097 1.480226 -7.658563 -4.764122 -0.872810 -8.394570 5.126369 13.117820 -10.317844 -12.708710 -4.597263 11.696833 -3.348596 2.381237 11.760145 -11.564169 
-3.595994 48.980701 -45.550629 -6.171875 0.019418 3.337744 51.916843 2.209471 -2.820771 -20.839844 0.000000 0.000000 -9.412150 6.519969 -0.134924 8.586096 -4.084739 0.307924 -4.754608 -0.109225 -0.002657 -75.819359 -15.496676 19.656004 -6.979554 11.587914 28.079380 -6.503251 -1.418491 -12.899120 4.754608 0.109225 -0.002676 74.800552 8.330153 -6.946906 2.434259 0.254779 25.955173 -7.303770 11.313297 35.750362 4.822579 9.275674 4.300234 1.912243 -7.479851 -4.741045 -0.034987 -8.243617 5.116312 10.067122 -10.517573 -12.628747 -4.782412 11.125226 -3.565098 3.470581 11.442331 -11.318792 
-3.600740 48.905758 -46.253693 -3.261794 0.389992 3.708244 53.805202 2.375476 -2.441889 -20.839844 0.000000 0.000000 -11.491391 6.081752 -0.144219 8.586096 -4.084739 0.307924 -4.754608 -0.109225 -0.002657 -77.398315 -19.288660 22.581982 -7.811211 12.205214 28.809734 -6.017288 -0.761080 -13.729838 4.754608 0.109225 -0.002676 74.632759 12.135592 -5.422906 2.441283 0.262678 25.759903 -8.051404 11.541242 35.098118 0.214199 8.559826 3.842392 2.791218 -7.226211 -4.586160 0.731796 -8.469522 4.937724 3.599381 -11.963766 -12.773683 0.665851 11.715729 -2.862256 1.978251 11.444970 -11.662353 
-3.648759 48.763775 -46.947250 0.351587 0.673815 3.930030 55.339626 2.718961 -2.393203 -20.839844 0.000000 0.000000 -13.793716 5.675312 0.266040 8.586096 -4.084739 0.307924 -4.754608 -0.109225 -0.002657 -78.385338 -23.008083 25.236406 -8.919063 13.065632 29.634197 -5.258491 -0.363431 -14.354536 4.754608 0.109225 -0.002676 73.939499 16.751783 -3.521472 2.458615 0.271701 25.730522 -8.862719 11.603421 33.909580 -5.260274 7.962731 3.862524 4.107484 -7.039139 -4.237782 1.276597 -9.129663 4.820267 -3.486328 -13.201446 -12.968208 5.679669 11.876093 -2.386501 0.703672 11.931078 -11.822986 
-3.728990 48.570591 -47.616016 4.727057 0.827255 3.759944 56.236809 2.961596 -2.388139 -20.839844 0.000000 0.000000 -16.345058 5.525484 0.624961 8.586096 -4.084739 0.307924 -4.754608 -0.109225 -0.002657 -78.582817 -27.026461 27.028059 -9.786846 13.507835 30.210039 -4.033091 -0.291502 -13.839808 4.754608 0.109225 -0.002676 72.808578 21.932243 -1.578404 2.461378 0.285527 26.043266 -9.872880 11.726199 32.971500 -11.547296 7.671768 3.775375 5.472380 -7.163989 -3.898973 1.817796 -9.182303 4.784511 -10.662720 -14.176470 -13.139919 8.939932 12.140343 -2.149219 0.368460 12.769801 -12.030769 
-3.819245 48.333595 -48.261547 9.649954 1.010885 3.218897 56.628963 2.976659 -2.364939 -20.839844 0.000000 0.000000 -19.222151 5.376185 0.801140 8.586096 -4.084739 0.307924 -4.754608 -0.109225 -0.002657 -78.195580 -31.649199 28.667479 -10.096944 13.586330 30.456049 -3.076806 -0.240526 -13.568447 4.754608 0.109225 -0.002676 71.313240 27.454281 0.304602 2.473531 0.312237 26.424522 -11.114611 11.861191 31.840887 -18.175777 7.603623 3.350914 6.507783 -7.514168 -3.684449 2.422825 -8.388088 4.545637 -17.840433 -14.988475 -13.135677 10.858585 12.645735 -1.968671 0.829929 13.605799 -12.656500 
-3.905305 48.045937 -48.839504 14.710593 1.246822 2.514949 56.958385 2.845627 -2.309432 -20.839844 0.000000 0.000000 -22.229053 5.055566 1.052998 8.586096 -4.084739 0.307924 -4.754608 -0.109225 -0.002657 -77.270790 -36.698868 30.078814 -10.256802 13.615517 30.360823 -2.564494 -0.143771 -13.729549 4.754608 0.109225 -0.002676 69.496597 33.308914 2.209085 2.492139 0.328446 26.551517 -12.360802 11.701148 29.832327 -24.902233 7.646477 3.311342 7.694487 -7.733956 -3.242294 2.796264 -8.055545 4.041152 -24.888872 -15.582454 -13.155288 12.254865 13.104439 -1.922014 1.612819 14.694468 -13.603312 
-3.972337 47.717102 -49.330902 19.557335 1.453990 2.020441 57.535862 2.635948 -2.391772 -20.839844 0.000000 0.000000 -24.865458 4.903921 1.435755 8.586096 -4.084739 0.307924 -4.754608 -0.109225 -0.002657 -75.001259 -41.958870 30.355772 -10.488938 13.740919 30.051672 -1.959475 -0.134805 -13.544221 4.754608 0.109225 -0.002676 67.443298 39.476910 3.926937 2.516253 0.345752 26.307304 -13.350564 11.333330 27.253914 -31.549248 7.528414 3.493814 9.389895 -7.431419 -2.857098 2.808843 -8.202250 3.678618 -31.624804 -15.942468 -13.545312 13.817619 13.222055 -2.125278 2.192105 16.227346 -14.329253 
-4.023529 47.337063 -49.728355 24.170341 1.612704 1.749295 58.244282 2.405444 -2.701460 -20.839844 0.000000 0.000000 -26.843582 5.010019 2.005723 8.586096 -4.084739 0.307924 -4.754608 -0.109225 -0.002657 -70.893555 -47.370155 28.993063 -10.772169 13.927870 29.716904 -1.383165 0.200774 -12.719773 4.754608 0.109225 -0.002676 64.916077 45.901527 5.174961 2.539934 0.363995 25.994677 -13.959575 10.939472 24.817314 -38.266499 7.293991 3.559678 11.830955 -6.816804 -2.667265 2.451281 -8.252182 3.941563 -38.247753 -16.139723 -14.259973 16.003181 12.849125 -2.471267 2.217588 18.088242 -14.315506 
-4.099548 46.848820 -49.995438 28.590086 1.826629 1.522692 58.721260 2.334456 -3.059083 -20.839844 0.000000 0.000000 -28.267651 5.035590 2.403431 8.586096 -4.084739 0.307924 -4.754608 -0.109225 -0.002657 -64.907928 -53.065212 26.582283 -10.277980 13.941340 29.655151 -0.649865 0.866943 -12.567799 4.754608 0.109225 -0.002676 61.116226 52.194084 5.328682 2.549903 0.385359 26.141396 -14.143370 10.610786 23.003689 -45.098621 7.263638 4.248920 15.396981 -6.298083 -2.314735 1.502187 -9.163455 4.488642 -45.124653 -16.405033 -14.689292 19.354277 12.284286 -2.432292 1.555913 19.577578 -13.828843 
-4.228836 46.251331 -50.123165 32.786785 2.028191 1.257310 58.945858 2.434118 -3.136180 -20.839844 0.000000 0.000000 -29.382610 4.546501 2.614355 8.586096 -4.084739 0.307924 -4.754608 -0.109225 -0.002657 -57.399330 -58.641087 22.317167 -9.594779 13.939041 29.105677 -0.200913 1.502194 -12.474455 4.754608 0.109225 -0.002676 55.294746 58.109146 3.565669 2.552629 0.409123 26.473854 -13.978144 10.350410 21.599762 -51.871078 7.850842 5.094824 19.761925 -6.360848 -2.114536 0.088450 -10.227957 4.872149 -52.030361 -16.767132 -13.973913 23.323723 12.271533 -1.770111 0.515933 19.550388 -13.672351 
-4.393539 45.576233 -50.154827 36.710075 2.161322 1.074002 58.971886 2.464440 -2.935965 -20.839844 0.000000 0.000000 -30.204052 4.232811 2.102570 8.586096 -4.084739 0.307924 -4.754608 -0.109225 -0.002657 -48.289894 -63.337135 15.376250 -9.590530 14.307380 28.071333 0.025172 1.741553 -11.421085 4.754608 0.109225 -0.002676 46.838722 63.363720 -1.196522 2.559933 0.416375 26.298029 -14.045445 10.133773 20.321329 -58.343468 8.855837 5.345249 24.289148 -7.010943 -2.318646 -1.504553 -10.682731 5.056883 -58.605713 -17.193327 -12.699461 27.459173 12.870474 -0.910125 -0.706044 18.693533 -14.286088 
-4.559251 44.825676 -50.116306 40.236828 2.371625 1.068203 59.025818 2.446405 -2.739388 -20.839844 0.000000 0.000000 -30.852118 4.230712 1.157059 8.586096 -4.084739 0.307924 -4.754608 -0.109225 -0.002657 -35.596542 -67.042946 5.221783 -9.059561 14.466512 27.219788 0.921766 1.645619 -10.711366 4.754608 0.109225 -0.002676 35.153893 67.446823 -9.428061 2.574343 0.411836 25.907084 -15.002017 10.049975 18.984159 -64.377113 9.792995 5.500108 28.911592 -7.725360 -2.608827 -3.249005 -11.092246 5.261078 -64.767548 -17.857540 -11.615615 31.896027 13.521441 -0.053101 -2.231020 18.123487 -15.295735 
